<svg xmlns="http://www.w3.org/2000/svg" viewBox="0 0 512 512" role="img" aria-label="Pink flower in a pot">
  <defs>
    <linearGradient id="sky" x1="0" y1="0" x2="0" y2="1">
      <stop offset="0%" stop-color="#dff7ff"/>
      <stop offset="100%" stop-color="#dfffe1"/>
    </linearGradient>
    <linearGradient id="petal" x1="0" y1="0" x2="1" y2="1">
      <stop offset="0%" stop-color="#ffb0de"/>
      <stop offset="100%" stop-color="#ff78c8"/>
    </linearGradient>
    <linearGradient id="pot" x1="0" y1="0" x2="0" y2="1">
      <stop offset="0%" stop-color="#f2a56d"/>
      <stop offset="100%" stop-color="#d96f3f"/>
    </linearGradient>
    <linearGradient id="stem" x1="0" y1="0" x2="0" y2="1">
      <stop offset="0%" stop-color="#35b15c"/>
      <stop offset="100%" stop-color="#1f8a45"/>
    </linearGradient>
    <filter id="shadow" x="-20%" y="-20%" width="140%" height="140%">
      <feDropShadow dx="0" dy="10" stdDeviation="8" flood-color="#a34b84" flood-opacity="0.18"/>
    </filter>
  </defs>

  <rect x="16" y="16" width="480" height="480" rx="34" fill="url(#sky)" opacity="0.0"/>

  <g filter="url(#shadow)" transform="translate(0 0)">
    <path d="M260 372 C246 336, 240 309, 242 282 C244 255, 257 229, 286 200" fill="none" stroke="url(#stem)" stroke-width="18" stroke-linecap="round"/>
    <path d="M243 335 C210 315, 184 312, 162 322 C186 343, 217 350, 243 335Z" fill="#60c86a"/>
    <path d="M278 327 C311 308, 342 306, 365 316 C340 338, 309 344, 278 327Z" fill="#60c86a"/>
    <path d="M245 289 C222 271, 200 265, 183 268 C196 287, 220 297, 245 289Z" fill="#67cf71"/>
    <path d="M289 288 C314 270, 336 265, 351 268 C338 287, 314 297, 289 288Z" fill="#67cf71"/>

    <g transform="translate(0 4)">
      <ellipse cx="256" cy="146" rx="56" ry="74" fill="url(#petal)"/>
      <ellipse cx="338" cy="175" rx="56" ry="74" fill="url(#petal)" transform="rotate(45 338 175)"/>
      <ellipse cx="322" cy="266" rx="56" ry="74" fill="url(#petal)" transform="rotate(90 322 266)"/>
      <ellipse cx="234" cy="300" rx="56" ry="74" fill="url(#petal)" transform="rotate(135 234 300)"/>
      <ellipse cx="174" cy="240" rx="56" ry="74" fill="url(#petal)" transform="rotate(180 174 240)"/>
      <ellipse cx="182" cy="163" rx="56" ry="74" fill="url(#petal)" transform="rotate(225 182 163)"/>
      <ellipse cx="256" cy="146" rx="56" ry="74" fill="url(#petal)" transform="rotate(270 256 146)"/>
      <circle cx="258" cy="226" r="62" fill="#ffd34b"/>
      <circle cx="236" cy="208" r="10" fill="#4a2c22"/>
      <circle cx="281" cy="208" r="10" fill="#4a2c22"/>
      <path d="M241 239 Q258 252 276 239" stroke="#4a2c22" stroke-width="8" stroke-linecap="round" fill="none"/>
      <circle cx="222" cy="227" r="7" fill="#ff7b86"/>
      <circle cx="294" cy="227" r="7" fill="#ff7b86"/>
      <circle cx="258" cy="207" r="7" fill="#fff7e1"/>
    </g>

    <path d="M168 410 C214 388, 304 388, 352 410 L348 466 C308 478, 204 478, 164 466 Z" fill="url(#pot)"/>
    <path d="M154 398 C202 370, 308 370, 358 398 L348 416 C301 435, 208 435, 164 416 Z" fill="#f8b06f"/>
    <path d="M188 409 C220 404, 292 404, 324 409" stroke="#fff" stroke-opacity="0.2" stroke-width="8" stroke-linecap="round"/>
    <path d="M205 449 C236 463, 276 463, 307 449" stroke="#fff0e8" stroke-width="10" stroke-linecap="round" opacity="0.45"/>
    <circle cx="323" cy="438" r="9" fill="#ffd0cb"/>
  </g>

  <g opacity="0.85">
    <path d="M80 86 l7 15 15 7 -15 7 -7 15 -7-15 -15-7 15-7z" fill="#fff8b3"/>
    <path d="M400 90 l6 12 12 6 -12 6 -6 12 -6-12 -12-6 12-6z" fill="#fff8b3"/>
  </g>
</svg>
