<svg xmlns="http://www.w3.org/2000/svg" viewBox="0 0 512 512" role="img" aria-label="Garden Match icon">
  <defs>
    <linearGradient id="bg" x1="0" x2="1" y1="0" y2="1">
      <stop offset="0" stop-color="#ffe4f5"/>
      <stop offset="0.45" stop-color="#ffb0dd"/>
      <stop offset="1" stop-color="#ff86cf"/>
    </linearGradient>
    <linearGradient id="card" x1="0" x2="0" y1="0" y2="1">
      <stop offset="0" stop-color="#ffffff"/>
      <stop offset="1" stop-color="#fff7fd"/>
    </linearGradient>
    <linearGradient id="stem" x1="0" x2="0" y1="0" y2="1">
      <stop offset="0" stop-color="#34d86f"/>
      <stop offset="1" stop-color="#15914a"/>
    </linearGradient>
    <filter id="shadow" x="-25%" y="-25%" width="150%" height="150%">
      <feDropShadow dx="0" dy="18" stdDeviation="18" flood-color="#7d2b5d" flood-opacity=".23"/>
    </filter>
  </defs>

  <rect width="512" height="512" rx="118" fill="url(#bg)"/>
  <circle cx="92" cy="96" r="32" fill="#fff" opacity=".6"/>
  <circle cx="424" cy="118" r="20" fill="#fff" opacity=".62"/>
  <path d="M40 362c60-34 125-24 177 0 57 26 118 29 228-28v142H40z" fill="#46c96f" opacity=".78"/>

  <g filter="url(#shadow)">
    <rect x="84" y="84" width="344" height="344" rx="88" fill="url(#card)"/>
    <rect x="102" y="102" width="308" height="308" rx="72" fill="none" stroke="#fff" stroke-width="8" opacity=".8"/>

    <!-- cute flower mascot -->
    <g transform="translate(256 234)">
      <g fill="#ff5fd2">
        <ellipse rx="42" ry="76" transform="translate(0 -92)"/>
        <ellipse rx="42" ry="76" transform="rotate(60) translate(0 -92)"/>
        <ellipse rx="42" ry="76" transform="rotate(120) translate(0 -92)"/>
        <ellipse rx="42" ry="76" transform="rotate(180) translate(0 -92)"/>
        <ellipse rx="42" ry="76" transform="rotate(240) translate(0 -92)"/>
        <ellipse rx="42" ry="76" transform="rotate(300) translate(0 -92)"/>
      </g>
      <circle r="52" fill="#ff8b1f"/>
      <circle r="34" fill="#ffe65a"/>
      <circle cx="-11" cy="-11" r="8" fill="#fff" opacity=".72"/>
      <circle cx="-14" cy="2" r="4.2" fill="#5b3c2f"/>
      <circle cx="14" cy="2" r="4.2" fill="#5b3c2f"/>
      <path d="M-10 18c6 7 16 7 22 0" fill="none" stroke="#5b3c2f" stroke-width="4.5" stroke-linecap="round"/>
      <rect x="-5.5" y="50" width="11" height="74" rx="5.5" fill="url(#stem)"/>
      <ellipse cx="-39" cy="94" rx="28" ry="16" fill="#5dd97b" transform="rotate(-24 -39 94)"/>
      <ellipse cx="39" cy="94" rx="28" ry="16" fill="#5dd97b" transform="rotate(24 39 94)"/>
    </g>

    <g transform="translate(360 140)">
      <ellipse cx="0" cy="0" rx="20" ry="14" fill="#ffd94f"/>
      <path d="M-16 0h32M-12 -6h24M-12 6h24" stroke="#3e312b" stroke-width="5" stroke-linecap="round"/>
      <path d="M-9 -11c-10 -10 -22 -2 -18 8" fill="#fff" opacity=".82"/>
      <path d="M9 -11c10 -10 22 -2 18 8" fill="#fff" opacity=".82"/>
    </g>
    <path d="M405 68l12 26 28 4-20 19 5 28-25-13-25 13 5-28-20-19 28-4z" fill="#fff" opacity=".9"/>
    <path d="M116 142l8 17 18 3-13 12 3 18-16-9-16 9 3-18-13-12 18-3z" fill="#fff" opacity=".74"/>

    <text x="256" y="394" text-anchor="middle" font-family="Arial Rounded MT Bold, Nunito, Arial, sans-serif" font-size="68" font-weight="900" fill="#5b37d6" letter-spacing="-6">GM</text>
  </g>
</svg>
